<svg xmlns="http://www.w3.org/2000/svg" viewBox="0 0 512 512">
<defs>
  <filter id="shadow" x="-50%" y="-50%" width="200%" height="200%">
    <feGaussianBlur in="SourceAlpha" stdDeviation="10" result="blur"/>
    <feOffset dy="12" result="off"/><feColorMatrix in="off" values="0 0 0 0 0 0 0 0 0 0 0 0 0 0 0 0 0 0 .42 0"/>
    <feMerge><feMergeNode/><feMergeNode in="SourceGraphic"/></feMerge>
  </filter>
  <filter id="texture" x="-20%" y="-20%" width="140%" height="140%">
    <feTurbulence type="fractalNoise" baseFrequency=".018" numOctaves="3" seed="7" result="noise"/>
    <feColorMatrix in="noise" values="1 0 0 0 0 0 1 0 0 0 0 0 1 0 0 0 0 0 .14 0"/>
    <feBlend in="SourceGraphic" mode="soft-light"/>
  </filter>
  <radialGradient id="glow"><stop offset="0" stop-color="#fff"/><stop offset=".25" stop-color="#dffff8"/><stop offset="1" stop-color="#63d9ca" stop-opacity=".05"/></radialGradient>
</defs>
<g filter="url(#shadow)" stroke-linecap="round" stroke-linejoin="round">
  <ellipse cx="258" cy="459" rx="116" ry="25" fill="#07120e" opacity=".32"/>
  <path d="M164 270C148 332 154 415 210 449c31 19 85 18 116-4 51-37 49-118 28-177-26-73-164-73-190 2Z" fill="url(#fur)" stroke="#d7e1ba" stroke-width="9"/>
  <path d="M177 289c-30 4-52 29-55 70-2 31 11 52 39 62l30-49-14-83ZM337 289c31 2 53 27 57 68 3 31-10 55-40 64l-31-49 14-83Z" fill="#415a3d" stroke="#d7e1ba" stroke-width="8"/>
  <circle cx="189" cy="180" r="41" fill="#4a6445" stroke="#d7e1ba" stroke-width="9"/><circle cx="327" cy="180" r="41" fill="#4a6445" stroke="#d7e1ba" stroke-width="9"/>
  <path d="M173 226c4-76 53-114 86-114s84 37 86 113c2 78-44 128-87 128-46 0-89-52-85-127Z" fill="url(#fur)" stroke="#d7e1ba" stroke-width="10"/>
  <path d="M207 250c10-32 38-49 53-49 18 0 45 17 53 50 8 34-17 61-54 61-38 0-63-27-52-62Z" fill="#d9c49d" stroke="#a58b68" stroke-width="6"/>
  <circle cx="223" cy="224" r="9" fill="#10211a"/><circle cx="294" cy="224" r="9" fill="#10211a"/><circle cx="226" cy="220" r="3" fill="#f6fff5"/><circle cx="297" cy="220" r="3" fill="#f6fff5"/>
  <path d="M247 257c0-12 23-12 23 0 0 11-23 11-23 0Z" fill="#1c2922"/><path d="M259 271v14m0 0c-15 13-31 11-40 2m40-2c14 13 31 11 40 2" fill="none" stroke="#513f32" stroke-width="6"/>
  <path d="M180 310c27-15 55-7 79 8 27-18 61-22 91-6l-13 95c-27 24-53 35-79 35-30 0-57-12-83-36l5-96Z" fill="#2b4939" opacity=".72" stroke="#8db38d" stroke-width="6"/>
  <path d="M208 323l31 27 34-29 28 28 37-23M206 382l35-26 34 25 35-27" fill="none" stroke="#c7d59c" stroke-width="7" stroke-dasharray="14 12"/>
  <circle cx="258" cy="377" r="35" fill="url(#glow)" stroke="#9effed" stroke-width="6"/><circle cx="258" cy="377" r="11" fill="#eafff8"/>
  <path d="M197 160c19-24 45-37 64-37M307 143c12 7 23 17 31 30" fill="none" stroke="#6e915a" stroke-width="12"/>
  <path d="M181 341c-23-11-35-29-38-55M338 341c25-11 39-29 41-57" fill="none" stroke="#729064" stroke-width="11"/>
  <path d="M204 444l-11 26M309 444l14 26" stroke="#d7e1ba" stroke-width="13"/>
</g>
<defs><linearGradient id="fur" x1="0" x2="1" y1="0" y2="1"><stop stop-color="#6f8c60"/><stop offset=".5" stop-color="#4c6747"/><stop offset="1" stop-color="#273c31"/></linearGradient></defs></svg>