<svg xmlns="http://www.w3.org/2000/svg" viewBox="0 0 512 512">
<defs>
  <filter id="shadow" x="-50%" y="-50%" width="200%" height="200%">
    <feGaussianBlur in="SourceAlpha" stdDeviation="10" result="blur"/>
    <feOffset dy="12" result="off"/><feColorMatrix in="off" values="0 0 0 0 0 0 0 0 0 0 0 0 0 0 0 0 0 0 .42 0"/>
    <feMerge><feMergeNode/><feMergeNode in="SourceGraphic"/></feMerge>
  </filter>
  <filter id="texture" x="-20%" y="-20%" width="140%" height="140%">
    <feTurbulence type="fractalNoise" baseFrequency=".018" numOctaves="3" seed="7" result="noise"/>
    <feColorMatrix in="noise" values="1 0 0 0 0 0 1 0 0 0 0 0 1 0 0 0 0 0 .14 0"/>
    <feBlend in="SourceGraphic" mode="soft-light"/>
  </filter>
  <radialGradient id="glow"><stop offset="0" stop-color="#fff"/><stop offset=".25" stop-color="#dffff8"/><stop offset="1" stop-color="#63d9ca" stop-opacity=".05"/></radialGradient>
</defs>
<g filter="url(#shadow)" stroke-linecap="round" stroke-linejoin="round">
 <ellipse cx="255" cy="462" rx="78" ry="20" fill="#100b08" opacity=".3"/>
 <path d="M201 192c-13-86 4-151 35-153 29-1 38 73 31 150M271 190c2-89 24-151 54-146 29 5 25 81 8 158" fill="#f3ead6" stroke="#efb86e" stroke-width="9"/>
 <path d="M218 180c-5-55 3-97 18-102 14 7 17 50 12 105M295 181c5-56 15-96 29-98 9 18 7 58-2 105" fill="none" stroke="#de7f78" stroke-width="10" opacity=".72"/>
 <path d="M187 286c0-76 30-127 72-127 44 0 77 48 77 127 0 69-33 149-77 149-46 0-72-80-72-149Z" fill="url(#cloth)" stroke="#ffe7b8" stroke-width="9"/>
 <path d="M212 262c8-42 27-63 48-63 25 0 46 25 52 66 6 42-16 75-52 75-35 0-55-34-48-78Z" fill="#fff1d8" stroke="#d5aa70" stroke-width="5"/>
 <circle cx="238" cy="252" r="8" fill="#2c2220"/><circle cx="285" cy="252" r="8" fill="#2c2220"/><circle cx="241" cy="249" r="3" fill="white"/><circle cx="288" cy="249" r="3" fill="white"/>
 <path d="M255 276c0-9 15-9 15 0 0 8-15 8-15 0Z" fill="#e58c7d"/><path d="M263 286v12m0 0c-11 9-21 8-28 1m28-1c9 9 20 8 27 1" fill="none" stroke="#78554b" stroke-width="5"/>
 <path d="M197 222l122-88" stroke="#d9576b" stroke-width="13"/><path d="M307 140c25-22 56-17 49 13-6 25-41 32-55 12 3 21-22 47-41 31-19-16-3-44 20-49" fill="#df6672" stroke="#ffb0a9" stroke-width="6"/>
 <path d="M209 351l42 24 34-28 35 25" fill="none" stroke="#d9a35d" stroke-width="7" stroke-dasharray="10 9"/>
 <path d="M190 324c-25 4-39 27-35 54 4 26 21 40 43 37M330 322c26 5 39 27 34 53-4 25-20 39-42 38" fill="none" stroke="#f3ead6" stroke-width="18"/>
 <path d="M225 427l-15 40M294 427l17 40" stroke="#f3ead6" stroke-width="16"/>
 <circle cx="260" cy="379" r="26" fill="url(#glow)" stroke="#ffd797" stroke-width="5"/><path d="M255 365v28m-14-14h28" stroke="#fff5d8" stroke-width="6"/>
</g><defs><linearGradient id="cloth" x1="0" x2="1" y1="0" y2="1"><stop stop-color="#fff7e7"/><stop offset=".52" stop-color="#e8d5b6"/><stop offset="1" stop-color="#b89264"/></linearGradient></defs></svg>