<svg xmlns="http://www.w3.org/2000/svg" viewBox="0 0 1600 900"><defs>
<filter id="grain"><feTurbulence type="fractalNoise" baseFrequency=".55" numOctaves="2" seed="4"/><feColorMatrix values="1 0 0 0 0 0 1 0 0 0 0 0 1 0 0 0 0 .075 0"/><feBlend in="SourceGraphic" mode="soft-light"/></filter>
<filter id="blur"><feGaussianBlur stdDeviation="22"/></filter>
<linearGradient id="shade" x1="0" y1="0" x2="0" y2="1"><stop stop-color="#000" stop-opacity="0"/><stop offset="1" stop-color="#000" stop-opacity=".72"/></linearGradient>
</defs>
<defs><linearGradient id="sky0" x1="0" y1="0" x2="1" y2="1"><stop stop-color="#1d4c3a"/><stop offset=".55" stop-color="#0f2e28"/><stop offset="1" stop-color="#071615"/></linearGradient><pattern id="weave" width="42" height="42" patternUnits="userSpaceOnUse"><path d="M0 21h42M21 0v42" stroke="#d2c89d" stroke-opacity=".11" stroke-width="3"/></pattern></defs>
<rect width="1600" height="900" fill="url(#sky0)"/><rect width="1600" height="900" fill="url(#weave)"/>
<path d="M0 510C210 410 347 454 520 520c177 68 327 20 488-74 197-114 365-61 592 55v399H0Z" fill="#244b36"/><path d="M0 638c238-94 414-28 606 48 219 87 422 71 994-92v306H0Z" fill="#183526"/>
<g opacity=".72"><circle cx="1350" cy="206" r="112" fill="#274f3d" stroke="#bdad71" stroke-width="22"/><circle cx="1350" cy="206" r="68" fill="#0b211b"/><path d="M1290 197c39-37 82-38 123-3M1289 226c43 31 88 30 127-4" fill="none" stroke="#6fdfce" stroke-width="10" stroke-dasharray="20 13"/></g>
<g><rect x="89" y="505" width="95" height="220" rx="25" fill="#7c5d3b"/><ellipse cx="136" cy="506" rx="68" ry="31" fill="#bd8c56"/><path d="M98 534h76M98 576h76M98 618h76" stroke="#4a3927" stroke-width="12"/><path d="M136 480c-16-89 31-154 105-171" fill="none" stroke="#efbc66" stroke-width="15"/></g>
<g fill="#c9e8a8" opacity=".75"><circle cx="90" cy="610" r="8"/><circle cx="205" cy="668" r="11"/><circle cx="320" cy="726" r="14"/><circle cx="435" cy="610" r="17"/><circle cx="550" cy="668" r="8"/><circle cx="665" cy="726" r="11"/><circle cx="780" cy="610" r="14"/><circle cx="895" cy="668" r="17"/><circle cx="1010" cy="726" r="8"/><circle cx="1125" cy="610" r="11"/><circle cx="1240" cy="668" r="14"/><circle cx="1355" cy="726" r="17"/><circle cx="1470" cy="610" r="8"/></g>
<path d="M190 745C420 606 640 792 818 618c166-162 376-89 548-270" fill="none" stroke="#6fe0ce" stroke-width="16" stroke-linecap="round"/><path d="M190 745C420 606 640 792 818 618c166-162 376-89 548-270" fill="none" stroke="#ecb866" stroke-width="5" stroke-dasharray="22 18"/>
<g fill="#ffdd86" opacity=".8"><circle cx="500" cy="254" r="5"/><circle cx="698" cy="180" r="4"/><circle cx="1115" cy="375" r="6"/><circle cx="1284" cy="530" r="4"/></g><rect width="1600" height="900" fill="url(#shade)" opacity=".45"/><rect width="1600" height="900" filter="url(#grain)" opacity=".18"/></svg>